<?xml version="1.0" encoding="utf-8"?>
<svg xmlns="http://www.w3.org/2000/svg" fill="none" height="48" viewBox="0 0 182 48" width="182">
  <g clip-path="url(#clip0_10216_165)">
    <path d="M10.636 39.6151C11.1663 40.1454 11.4351 40.9082 11.4351 41.9035V46.0809H10.527V42.0052C10.527 41.2279 10.3381 40.6394 9.96035 40.2326C9.58256 39.8257 9.06675 39.6223 8.42016 39.6223C7.77357 39.6223 7.19964 39.8475 6.80006 40.2907C6.39322 40.7339 6.1898 41.3805 6.1898 42.2232V46.0882H5.28167V42.0125C5.28167 41.2352 5.09278 40.6467 4.715 40.2398C4.33722 39.833 3.8214 39.6296 3.16028 39.6296C2.49917 39.6296 1.93976 39.8548 1.54018 40.298C1.14061 40.7411 0.937188 41.3877 0.937188 42.2305V46.0955H0V38.9612H0.922658V40.189C1.14787 39.7458 1.4748 39.4044 1.89617 39.1791C2.31754 38.9467 2.78977 38.8304 3.30559 38.8304C3.93038 38.8304 4.47525 38.9757 4.94748 39.2736C5.41971 39.5715 5.76116 40.0074 5.97185 40.5813C6.168 40.0146 6.49493 39.5787 6.96716 39.2809C7.43938 38.983 7.96973 38.8304 8.57273 38.8304C9.41547 38.8304 10.1056 39.092 10.636 39.6223V39.6151Z" fill="#A0A2A8"/>
    <path d="M16.2592 45.7395C15.7216 45.4416 15.293 45.013 14.9806 44.4608C14.6682 43.9087 14.5156 43.2621 14.5156 42.5211C14.5156 41.78 14.6755 41.1334 14.9879 40.5813C15.3002 40.0292 15.7361 39.6005 16.281 39.3027C16.8259 39.0048 17.4362 38.8522 18.1118 38.8522C18.7875 38.8522 19.405 39.0048 19.9499 39.3027C20.4947 39.6005 20.9306 40.0292 21.243 40.5813C21.5554 41.1334 21.708 41.78 21.708 42.5211C21.708 43.2621 21.5482 43.8941 21.2358 44.4536C20.9161 45.013 20.4875 45.4416 19.9281 45.7395C19.3759 46.0373 18.7584 46.1899 18.0828 46.1899C17.4071 46.1899 16.7968 46.0373 16.2592 45.7395ZM19.405 45.0783C19.8118 44.8677 20.1388 44.5407 20.3858 44.1121C20.64 43.6835 20.7635 43.1531 20.7635 42.5283C20.7635 41.9035 20.64 41.3732 20.393 40.9445C20.146 40.5159 19.8191 40.189 19.4195 39.9783C19.0127 39.7676 18.5768 39.6586 18.0973 39.6586C17.6178 39.6586 17.1819 39.7676 16.7823 39.9783C16.3755 40.189 16.0558 40.5159 15.8088 40.9445C15.5691 41.3732 15.4455 41.9035 15.4455 42.5283C15.4455 43.1531 15.5691 43.6835 15.8088 44.1121C16.0485 44.5407 16.3755 44.8677 16.775 45.0783C17.1746 45.289 17.6105 45.398 18.09 45.398C18.5695 45.398 19.0054 45.289 19.4122 45.0783H19.405Z" fill="#A0A2A8"/>
    <path d="M26.7061 39.1937C27.1202 38.9467 27.636 38.8304 28.2463 38.8304V39.7821H27.992C27.3236 39.7821 26.786 39.9638 26.3792 40.3198C25.9723 40.6757 25.7762 41.2715 25.7762 42.107V46.0882H24.8535V38.9539H25.7762V40.218C25.9796 39.7749 26.2847 39.4334 26.7061 39.1864V39.1937Z" fill="#A0A2A8"/>
    <path d="M37.5674 42.877H31.5956C31.6246 43.4147 31.7554 43.8796 31.9879 44.2647C32.2204 44.6497 32.54 44.933 32.9251 45.1365C33.3101 45.3326 33.7315 45.4271 34.1892 45.4271C34.7849 45.4271 35.2935 45.2818 35.7003 44.9984C36.1072 44.7078 36.3832 44.3228 36.514 43.836H37.4875C37.3131 44.5335 36.9354 45.1001 36.3614 45.5433C35.7875 45.9865 35.061 46.2044 34.1892 46.2044C33.5135 46.2044 32.9033 46.0519 32.3657 45.754C31.8281 45.4561 31.4067 45.0275 31.1088 44.4754C30.811 43.9232 30.6511 43.2766 30.6511 42.5356C30.6511 41.7946 30.8037 41.148 31.1016 40.5886C31.3994 40.0292 31.8208 39.6078 32.3511 39.3099C32.8815 39.0121 33.499 38.8668 34.1819 38.8668C34.8648 38.8668 35.4678 39.0121 35.9836 39.3099C36.4995 39.6078 36.8918 40.0074 37.1678 40.5014C37.4439 41.0027 37.582 41.5548 37.582 42.1651C37.582 42.4775 37.5747 42.7172 37.5529 42.8843L37.5674 42.877ZM36.3324 40.7702C36.1072 40.3997 35.802 40.1163 35.417 39.9202C35.0319 39.7313 34.6106 39.6296 34.1529 39.6296C33.47 39.6296 32.8815 39.8475 32.402 40.2834C31.9152 40.7193 31.6464 41.3296 31.5956 42.1215H36.6593C36.6666 41.5911 36.5576 41.1407 36.3324 40.7629V40.7702Z" fill="#A0A2A8"/>
    <path d="M46.7212 36.4257V46.0882H45.7986V36.4257H46.7212Z" fill="#A0A2A8"/>
    <path d="M56.7544 42.877H50.7826C50.8116 43.4147 50.9424 43.8796 51.1749 44.2647C51.4074 44.6497 51.727 44.933 52.1121 45.1365C52.4971 45.3326 52.9185 45.4271 53.3762 45.4271C53.9719 45.4271 54.4805 45.2818 54.8873 44.9984C55.2942 44.7078 55.5702 44.3228 55.701 43.836H56.6745C56.5002 44.5335 56.1224 45.1001 55.5484 45.5433C54.9745 45.9865 54.248 46.2044 53.3762 46.2044C52.7006 46.2044 52.0903 46.0519 51.5527 45.754C51.0151 45.4561 50.5937 45.0275 50.2958 44.4754C49.998 43.9232 49.8381 43.2766 49.8381 42.5356C49.8381 41.7946 49.9907 41.148 50.2886 40.5886C50.5864 40.0292 51.0078 39.6078 51.5382 39.3099C52.0685 39.0121 52.686 38.8668 53.3689 38.8668C54.0518 38.8668 54.6548 39.0121 55.1707 39.3099C55.6865 39.6078 56.0788 40.0074 56.3549 40.5014C56.6309 41.0027 56.769 41.5548 56.769 42.1651C56.769 42.4775 56.7617 42.7172 56.7399 42.8843L56.7544 42.877ZM55.5266 40.7702C55.3014 40.3997 54.9963 40.1163 54.6113 39.9202C54.2262 39.7313 53.8048 39.6296 53.3471 39.6296C52.6642 39.6296 52.0758 39.8475 51.5963 40.2834C51.1095 40.7193 50.8407 41.3296 50.7899 42.1215H55.8536C55.8608 41.5911 55.7519 41.1407 55.5266 40.7629V40.7702Z" fill="#A0A2A8"/>
    <path d="M59.9437 40.5813C60.2415 40.0292 60.6484 39.6005 61.1714 39.3027C61.6945 39.0048 62.283 38.8522 62.9441 38.8522C63.6052 38.8522 64.2228 39.0048 64.7168 39.3244C65.2108 39.6368 65.574 40.0364 65.792 40.5232V38.9539H66.7147V46.0882H65.792V44.5044C65.5668 44.9912 65.2035 45.398 64.7022 45.7104C64.201 46.0228 63.6125 46.1899 62.9296 46.1899C62.2757 46.1899 61.6945 46.0373 61.1714 45.7322C60.6484 45.4271 60.2415 44.9984 59.9437 44.439C59.6458 43.8796 59.5005 43.2403 59.5005 42.5065C59.5005 41.7728 59.6458 41.1334 59.9437 40.5813ZM65.436 41.0099C65.1963 40.574 64.8766 40.2398 64.4698 40.0074C64.0629 39.7749 63.6125 39.6514 63.1185 39.6514C62.6244 39.6514 62.1522 39.7676 61.7454 39.9928C61.3385 40.218 61.0189 40.545 60.7864 40.9809C60.5539 41.4095 60.4377 41.9253 60.4377 42.5138C60.4377 43.1023 60.5539 43.6108 60.7864 44.0467C61.0189 44.4899 61.3385 44.8241 61.7454 45.0493C62.1522 45.2818 62.6099 45.398 63.1185 45.398C63.627 45.398 64.0629 45.2818 64.4698 45.042C64.8766 44.8095 65.2035 44.4753 65.436 44.0394C65.6685 43.6035 65.792 43.1023 65.792 42.5211C65.792 41.9399 65.6758 41.4386 65.436 41.0027V41.0099Z" fill="#A0A2A8"/>
    <path d="M70.3037 40.5813C70.6016 40.0292 71.0157 39.6005 71.5388 39.3027C72.0618 39.0048 72.6503 38.8522 73.3114 38.8522C73.9725 38.8522 74.5174 39.0048 75.026 39.3099C75.5345 39.6151 75.9123 40.0146 76.1448 40.5014V36.4257H77.0674V46.0882H76.1448V44.4971C75.9268 44.9912 75.5636 45.398 75.0623 45.7177C74.561 46.0373 73.9725 46.1972 73.2969 46.1972C72.6212 46.1972 72.0473 46.0446 71.5242 45.7395C71.0011 45.4343 70.5943 45.0057 70.2964 44.4463C69.9986 43.8869 69.8533 43.2476 69.8533 42.5138C69.8533 41.78 70.0058 41.1407 70.3037 40.5886V40.5813ZM75.7888 41.0099C75.549 40.574 75.2294 40.2398 74.8225 40.0074C74.4157 39.7749 73.9653 39.6514 73.4712 39.6514C72.9772 39.6514 72.505 39.7676 72.0982 39.9928C71.6913 40.218 71.3717 40.545 71.1392 40.9809C70.9067 41.4095 70.7905 41.9253 70.7905 42.5138C70.7905 43.1023 70.9067 43.6108 71.1392 44.0467C71.3717 44.4899 71.6913 44.8241 72.0982 45.0493C72.505 45.2818 72.9627 45.398 73.4712 45.398C73.9798 45.398 74.4157 45.2818 74.8225 45.042C75.2294 44.8095 75.5563 44.4753 75.7888 44.0394C76.0213 43.6035 76.1448 43.1023 76.1448 42.5211C76.1448 41.9399 76.0285 41.4386 75.7888 41.0027V41.0099Z" fill="#A0A2A8"/>
    <path d="M81.0849 45.6232C80.5618 45.2454 80.2712 44.7296 80.2058 44.0758H81.1575C81.2011 44.4753 81.39 44.8023 81.7315 45.0493C82.0729 45.2963 82.5233 45.4198 83.0973 45.4198C83.5986 45.4198 83.9909 45.3036 84.2742 45.0638C84.5576 44.8313 84.7029 44.5335 84.7029 44.192C84.7029 43.945 84.6229 43.7488 84.4631 43.589C84.3033 43.4292 84.1071 43.3057 83.8601 43.2185C83.6131 43.1313 83.2934 43.0296 82.8793 42.9279C82.3417 42.7899 81.9058 42.6518 81.5716 42.5138C81.2374 42.3758 80.9541 42.1651 80.7216 41.8963C80.4891 41.6202 80.3729 41.2569 80.3729 40.792C80.3729 40.4433 80.4819 40.1236 80.6926 39.8257C80.9033 39.5279 81.2011 39.2954 81.5862 39.121C81.9712 38.9467 82.4144 38.8595 82.9084 38.8595C83.6785 38.8595 84.3033 39.0556 84.7828 39.4407C85.255 39.8257 85.5093 40.3633 85.5456 41.039H84.6229C84.5939 40.6176 84.4341 40.2834 84.1289 40.0292C83.8238 39.7749 83.4097 39.6441 82.8793 39.6441C82.4144 39.6441 82.0366 39.7531 81.746 39.971C81.4554 40.189 81.3101 40.4578 81.3101 40.7775C81.3101 41.0535 81.3973 41.286 81.5644 41.4604C81.7387 41.642 81.9494 41.78 82.2037 41.8817C82.458 41.9834 82.7994 42.0924 83.2353 42.2159C83.7511 42.354 84.1652 42.492 84.4776 42.6228C84.7828 42.7535 85.0516 42.9424 85.2695 43.1967C85.4875 43.451 85.6037 43.7852 85.611 44.1993C85.611 44.5843 85.5093 44.9258 85.2913 45.2236C85.0734 45.5215 84.7828 45.7613 84.405 45.9356C84.0272 46.11 83.5913 46.1972 83.0973 46.1972C82.2691 46.1972 81.5934 46.0083 81.0703 45.6305L81.0849 45.6232Z" fill="#A0A2A8"/>
    <path d="M89.6504 44.5771L88.2773 47.9989H87.6453L88.6188 44.5771H89.6504Z" fill="#A0A2A8"/>
    <path d="M98.5281 36.4257V46.0882H97.6055V36.4257H98.5281Z" fill="#A0A2A8"/>
    <path d="M108.568 42.877H102.597C102.626 43.4147 102.756 43.8796 102.989 44.2647C103.221 44.6497 103.541 44.933 103.926 45.1365C104.311 45.3326 104.732 45.4271 105.19 45.4271C105.786 45.4271 106.294 45.2818 106.701 44.9984C107.108 44.7078 107.384 44.3228 107.515 43.836H108.488C108.314 44.5335 107.936 45.1001 107.362 45.5433C106.788 45.9865 106.062 46.2044 105.19 46.2044C104.515 46.2044 103.904 46.0519 103.367 45.754C102.829 45.4561 102.408 45.0275 102.11 44.4754C101.812 43.9232 101.652 43.2766 101.652 42.5356C101.652 41.7946 101.805 41.148 102.103 40.5886C102.4 40.0292 102.822 39.6078 103.352 39.3099C103.882 39.0121 104.5 38.8668 105.183 38.8668C105.866 38.8668 106.469 39.0121 106.985 39.3099C107.5 39.6078 107.893 40.0074 108.169 40.5014C108.445 41.0027 108.583 41.5548 108.583 42.1651C108.583 42.4775 108.576 42.7172 108.554 42.8843L108.568 42.877ZM107.333 40.7702C107.108 40.3997 106.803 40.1163 106.418 39.9202C106.033 39.7313 105.612 39.6296 105.154 39.6296C104.471 39.6296 103.882 39.8475 103.403 40.2834C102.916 40.7193 102.647 41.3296 102.597 42.1215H107.66C107.668 41.5911 107.559 41.1407 107.333 40.7629V40.7702Z" fill="#A0A2A8"/>
    <path d="M112.186 45.6232C111.663 45.2454 111.373 44.7296 111.307 44.0758H112.259C112.303 44.4753 112.492 44.8023 112.833 45.0493C113.174 45.2963 113.625 45.4198 114.199 45.4198C114.7 45.4198 115.092 45.3036 115.376 45.0638C115.659 44.8313 115.804 44.5335 115.804 44.192C115.804 43.945 115.725 43.7488 115.565 43.589C115.405 43.4292 115.209 43.3057 114.962 43.2185C114.715 43.1313 114.395 43.0296 113.981 42.9279C113.443 42.7899 113.007 42.6518 112.673 42.5138C112.339 42.3758 112.056 42.1651 111.823 41.8963C111.591 41.6202 111.474 41.2569 111.474 40.792C111.474 40.4433 111.583 40.1236 111.794 39.8257C112.005 39.5279 112.303 39.2954 112.688 39.121C113.073 38.9467 113.516 38.8595 114.01 38.8595C114.78 38.8595 115.405 39.0556 115.884 39.4407C116.357 39.8257 116.611 40.3633 116.647 41.039H115.724C115.695 40.6176 115.536 40.2834 115.23 40.0292C114.925 39.7749 114.511 39.6441 113.981 39.6441C113.516 39.6441 113.138 39.7531 112.848 39.971C112.557 40.189 112.412 40.4578 112.412 40.7775C112.412 41.0535 112.499 41.286 112.666 41.4604C112.84 41.642 113.051 41.78 113.305 41.8817C113.56 41.9834 113.901 42.0924 114.337 42.2159C114.853 42.354 115.267 42.492 115.579 42.6228C115.884 42.7535 116.153 42.9424 116.371 43.1967C116.589 43.451 116.705 43.7852 116.713 44.1993C116.713 44.5843 116.611 44.9258 116.393 45.2236C116.175 45.5215 115.884 45.7613 115.507 45.9356C115.129 46.11 114.693 46.1972 114.199 46.1972C113.371 46.1972 112.695 46.0083 112.172 45.6305L112.186 45.6232Z" fill="#A0A2A8"/>
    <path d="M120.367 45.6232C119.844 45.2454 119.553 44.7296 119.488 44.0758H120.44C120.483 44.4753 120.672 44.8023 121.013 45.0493C121.355 45.2963 121.805 45.4198 122.379 45.4198C122.881 45.4198 123.273 45.3036 123.556 45.0638C123.84 44.8313 123.985 44.5335 123.985 44.192C123.985 43.945 123.905 43.7488 123.745 43.589C123.585 43.4292 123.389 43.3057 123.142 43.2185C122.895 43.1313 122.575 43.0296 122.161 42.9279C121.624 42.7899 121.188 42.6518 120.854 42.5138C120.519 42.3758 120.236 42.1651 120.004 41.8963C119.771 41.6202 119.655 41.2569 119.655 40.792C119.655 40.4433 119.764 40.1236 119.975 39.8257C120.185 39.5279 120.483 39.2954 120.868 39.121C121.253 38.9467 121.696 38.8595 122.19 38.8595C122.96 38.8595 123.585 39.0556 124.065 39.4407C124.537 39.8257 124.791 40.3633 124.828 41.039H123.905C123.876 40.6176 123.716 40.2834 123.411 40.0292C123.106 39.7749 122.692 39.6441 122.161 39.6441C121.696 39.6441 121.319 39.7531 121.028 39.971C120.737 40.189 120.592 40.4578 120.592 40.7775C120.592 41.0535 120.679 41.286 120.846 41.4604C121.021 41.642 121.231 41.78 121.486 41.8817C121.74 41.9834 122.081 42.0924 122.517 42.2159C123.033 42.354 123.447 42.492 123.76 42.6228C124.065 42.7535 124.334 42.9424 124.552 43.1967C124.769 43.451 124.886 43.7852 124.893 44.1993C124.893 44.5843 124.791 44.9258 124.573 45.2236C124.355 45.5215 124.065 45.7613 123.687 45.9356C123.309 46.11 122.873 46.1972 122.379 46.1972C121.551 46.1972 120.875 46.0083 120.352 45.6305L120.367 45.6232Z" fill="#A0A2A8"/>
    <path d="M138.05 39.1646C138.486 39.3898 138.827 39.7386 139.082 40.2035C139.336 40.6685 139.459 41.2351 139.459 41.9108V46.0882H138.551V42.0125C138.551 41.2352 138.355 40.6467 137.963 40.2398C137.57 39.833 137.04 39.6296 136.357 39.6296C135.674 39.6296 135.108 39.8475 134.694 40.2834C134.279 40.7193 134.076 41.3587 134.076 42.2014V46.0955H133.153V36.433H134.076V40.1817C134.301 39.7531 134.643 39.4262 135.086 39.1864C135.529 38.9467 136.03 38.8304 136.582 38.8304C137.135 38.8304 137.621 38.9467 138.05 39.1719V39.1646Z" fill="#A0A2A8"/>
    <path d="M142.976 40.5813C143.274 40.0292 143.68 39.6005 144.203 39.3027C144.727 39.0048 145.315 38.8522 145.976 38.8522C146.637 38.8522 147.255 39.0048 147.749 39.3244C148.243 39.6368 148.606 40.0364 148.824 40.5232V38.9539H149.747V46.0882H148.824V44.5044C148.599 44.9912 148.236 45.398 147.734 45.7104C147.233 46.0228 146.644 46.1899 145.962 46.1899C145.308 46.1899 144.727 46.0373 144.203 45.7322C143.68 45.4271 143.274 44.9984 142.976 44.439C142.678 43.8796 142.532 43.2403 142.532 42.5065C142.532 41.7728 142.678 41.1334 142.976 40.5813ZM148.468 41.0099C148.228 40.574 147.909 40.2398 147.502 40.0074C147.095 39.7749 146.644 39.6514 146.15 39.6514C145.656 39.6514 145.184 39.7676 144.777 39.9928C144.371 40.218 144.051 40.545 143.818 40.9809C143.586 41.4095 143.47 41.9253 143.47 42.5138C143.47 43.1023 143.586 43.6108 143.818 44.0467C144.051 44.4899 144.371 44.8241 144.777 45.0493C145.184 45.2818 145.642 45.398 146.15 45.398C146.659 45.398 147.095 45.2818 147.502 45.042C147.909 44.8095 148.236 44.4753 148.468 44.0394C148.7 43.6035 148.824 43.1023 148.824 42.5211C148.824 41.9399 148.708 41.4386 148.468 41.0027V41.0099Z" fill="#A0A2A8"/>
    <path d="M153.764 45.6232C153.241 45.2454 152.95 44.7296 152.885 44.0758H153.837C153.88 44.4753 154.069 44.8023 154.411 45.0493C154.752 45.2963 155.203 45.4198 155.776 45.4198C156.278 45.4198 156.67 45.3036 156.953 45.0638C157.237 44.8313 157.382 44.5335 157.382 44.192C157.382 43.945 157.302 43.7488 157.142 43.589C156.982 43.4292 156.786 43.3057 156.539 43.2185C156.292 43.1313 155.973 43.0296 155.559 42.9279C155.021 42.7899 154.585 42.6518 154.251 42.5138C153.917 42.3758 153.633 42.1651 153.401 41.8963C153.168 41.6202 153.052 41.2569 153.052 40.792C153.052 40.4433 153.161 40.1236 153.372 39.8257C153.582 39.5279 153.88 39.2954 154.265 39.121C154.65 38.9467 155.094 38.8595 155.588 38.8595C156.358 38.8595 156.982 39.0556 157.462 39.4407C157.934 39.8257 158.188 40.3633 158.225 41.039H157.302C157.273 40.6176 157.113 40.2834 156.808 40.0292C156.503 39.7749 156.089 39.6441 155.559 39.6441C155.094 39.6441 154.716 39.7531 154.425 39.971C154.135 40.189 153.989 40.4578 153.989 40.7775C153.989 41.0535 154.076 41.286 154.244 41.4604C154.418 41.642 154.629 41.78 154.883 41.8817C155.137 41.9834 155.479 42.0924 155.915 42.2159C156.43 42.354 156.844 42.492 157.157 42.6228C157.462 42.7535 157.731 42.9424 157.949 43.1967C158.167 43.451 158.283 43.7852 158.29 44.1993C158.29 44.5843 158.188 44.9258 157.971 45.2236C157.753 45.5215 157.462 45.7613 157.084 45.9356C156.706 46.11 156.271 46.1972 155.776 46.1972C154.948 46.1972 154.273 46.0083 153.75 45.6305L153.764 45.6232Z" fill="#A0A2A8"/>
    <path d="M161.937 45.6232C161.414 45.2454 161.124 44.7296 161.058 44.0758H162.01C162.054 44.4753 162.243 44.8023 162.584 45.0493C162.925 45.2963 163.376 45.4198 163.95 45.4198C164.451 45.4198 164.843 45.3036 165.127 45.0638C165.41 44.8313 165.555 44.5335 165.555 44.192C165.555 43.945 165.475 43.7488 165.316 43.589C165.156 43.4292 164.96 43.3057 164.713 43.2185C164.466 43.1313 164.146 43.0296 163.732 42.9279C163.194 42.7899 162.758 42.6518 162.424 42.5138C162.09 42.3758 161.807 42.1651 161.574 41.8963C161.342 41.6202 161.225 41.2569 161.225 40.792C161.225 40.4433 161.334 40.1236 161.545 39.8257C161.756 39.5279 162.054 39.2954 162.439 39.121C162.824 38.9467 163.267 38.8595 163.761 38.8595C164.531 38.8595 165.156 39.0556 165.635 39.4407C166.108 39.8257 166.362 40.3633 166.398 41.039H165.475C165.446 40.6176 165.287 40.2834 164.981 40.0292C164.676 39.7749 164.262 39.6441 163.732 39.6441C163.267 39.6441 162.889 39.7531 162.599 39.971C162.308 40.189 162.163 40.4578 162.163 40.7775C162.163 41.0535 162.25 41.286 162.417 41.4604C162.591 41.642 162.802 41.78 163.056 41.8817C163.311 41.9834 163.652 42.0924 164.088 42.2159C164.604 42.354 165.018 42.492 165.33 42.6228C165.635 42.7535 165.904 42.9424 166.122 43.1967C166.34 43.451 166.456 43.7852 166.464 44.1993C166.464 44.5843 166.362 44.9258 166.151 45.2236C165.94 45.5215 165.65 45.7613 165.265 45.9356C164.887 46.11 164.451 46.1972 163.957 46.1972C163.129 46.1972 162.453 46.0083 161.93 45.6305L161.937 45.6232Z" fill="#A0A2A8"/>
    <path d="M170.583 36.4257V46.0882H169.66V36.4257H170.583Z" fill="#A0A2A8"/>
    <path d="M180.623 42.877H174.644C174.673 43.4147 174.804 43.8796 175.036 44.2647C175.276 44.6497 175.588 44.933 175.973 45.1365C176.358 45.3326 176.78 45.4271 177.238 45.4271C177.833 45.4271 178.342 45.2818 178.749 44.9984C179.155 44.7151 179.432 44.3228 179.562 43.836H180.536C180.361 44.5335 179.984 45.1001 179.41 45.5433C178.836 45.9865 178.109 46.2044 177.238 46.2044C176.562 46.2044 175.952 46.0519 175.414 45.754C174.876 45.4561 174.455 45.0275 174.157 44.4754C173.859 43.9232 173.699 43.2766 173.699 42.5356C173.699 41.7946 173.852 41.148 174.15 40.5886C174.448 40.0292 174.869 39.6078 175.399 39.3099C175.93 39.0121 176.547 38.8668 177.23 38.8668C177.913 38.8668 178.516 39.0121 179.032 39.3099C179.548 39.6078 179.94 40.0074 180.216 40.5014C180.492 41.0027 180.63 41.5548 180.63 42.1651C180.63 42.4775 180.623 42.7172 180.609 42.8843L180.623 42.877ZM179.388 40.7702C179.163 40.3997 178.858 40.1163 178.473 39.9202C178.088 39.7313 177.666 39.6296 177.208 39.6296C176.526 39.6296 175.937 39.8475 175.45 40.2834C174.971 40.7193 174.702 41.3296 174.644 42.1215H179.708C179.715 41.5911 179.613 41.1407 179.388 40.7629V40.7702Z" fill="#A0A2A8"/>
    <path d="M4.51158 12.749C5.62313 12.037 6.94536 11.681 8.46375 11.681C9.98214 11.681 11.268 12.0225 12.4305 12.7054C13.5929 13.3883 14.5082 14.3546 15.1694 15.6042C15.8305 16.861 16.1647 18.314 16.1647 19.9704C16.1647 21.6269 15.8377 23.0871 15.1694 24.3512C14.5082 25.6154 13.5929 26.5889 12.4159 27.279C11.239 27.9692 9.92402 28.3179 8.46375 28.3179C6.92357 28.3179 5.59407 27.9692 4.48252 27.2645C3.36371 26.5671 2.55002 25.6517 2.04147 24.5256V28.0782H0V6.18142H2.04147V15.5097C2.57182 14.3836 3.40003 13.4682 4.51158 12.7563V12.749ZM13.2805 16.4978C12.7574 15.5242 12.0381 14.7759 11.1373 14.2601C10.2292 13.7443 9.20478 13.49 8.05691 13.49C6.90904 13.49 5.94279 13.7588 5.02013 14.2892C4.10474 14.8195 3.37824 15.5824 2.84062 16.5704C2.31028 17.5584 2.04147 18.6991 2.04147 20.0068C2.04147 21.3145 2.31028 22.4551 2.84062 23.4431C3.37097 24.4312 4.09747 25.1867 5.02013 25.7243C5.93552 26.2547 6.95263 26.5235 8.05691 26.5235C9.16119 26.5235 10.2292 26.2619 11.1373 25.7389C12.0454 25.2158 12.7574 24.453 13.2805 23.4576C13.8035 22.4623 14.0651 21.2999 14.0651 19.9777C14.0651 18.6555 13.8035 17.4785 13.2805 16.4978Z" fill="#A0A2A8"/>
    <path d="M27.5491 19.135C29.5324 16.97 30.5277 14.8559 30.5277 12.7853C30.5277 11.4268 30.1863 10.3297 29.5034 9.51606C28.8204 8.69512 27.7089 8.28827 26.176 8.28827C24.6431 8.28827 23.517 8.7605 22.696 9.69769C21.8751 10.6349 21.4174 11.8845 21.3229 13.4392H19.3105C19.4268 11.2451 20.1024 9.54512 21.3375 8.33187C22.5725 7.11861 24.1854 6.50834 26.176 6.50834C28.1666 6.50834 29.6414 7.04596 30.8256 8.12118C32.0098 9.1964 32.6055 10.7221 32.6055 12.6981C32.6055 15.0883 31.6102 17.3986 29.6269 19.6435C27.6435 21.8811 25.2025 24.0679 22.2965 26.2038H33.2521V27.9474H19.1289V26.4654C22.7614 23.741 25.5657 21.2999 27.5491 19.135Z" fill="#A0A2A8"/>
    <path d="M41.4325 12.749C42.544 12.037 43.8663 11.681 45.3847 11.681C46.903 11.681 48.1889 12.0225 49.3514 12.7054C50.5138 13.3883 51.4291 14.3546 52.0903 15.6042C52.7514 16.8537 53.0856 18.314 53.0856 19.9704C53.0856 21.6269 52.7586 23.0871 52.0903 24.3512C51.4291 25.6154 50.5138 26.5889 49.3368 27.279C48.1599 27.9692 46.8449 28.3179 45.3847 28.3179C43.8445 28.3179 42.515 27.9692 41.4034 27.2645C40.2846 26.5671 39.4709 25.6517 38.9624 24.5256V28.0782H36.9209V6.18142H38.9624V15.5097C39.4927 14.3836 40.3209 13.4682 41.4325 12.7563V12.749ZM50.2014 16.4978C49.6783 15.5242 48.959 14.7759 48.0582 14.2601C47.1501 13.7443 46.1257 13.49 44.9778 13.49C43.8299 13.49 42.8637 13.7588 41.941 14.2892C41.0256 14.8195 40.2991 15.5824 39.7615 16.5704C39.2312 17.5584 38.9624 18.6991 38.9624 20.0068C38.9624 21.3145 39.2312 22.4551 39.7615 23.4431C40.2919 24.4312 41.0184 25.1867 41.941 25.7243C42.8564 26.2547 43.8735 26.5235 44.9778 26.5235C46.0821 26.5235 47.1501 26.2619 48.0582 25.7389C48.9663 25.2158 49.6783 24.453 50.2014 23.4576C50.7244 22.4623 50.986 21.2999 50.986 19.9777C50.986 18.6555 50.7244 17.4785 50.2014 16.4978Z" fill="#A0A2A8"/>
    <path d="M63.8013 22.7384H72.7373V28.0055H56.9795V-0.00111389H63.8013V22.7384Z" fill="#038A71"/>
    <path d="M82.8284 5.46218V11.1289H91.9678V16.396H82.8284V22.5422H93.1593V28.0055H76.0066V-0.00111389H93.1593V5.46218H82.8284Z" fill="#038A71"/>
    <path d="M115.027 23.0581H104.573L102.894 28.0055H95.7529L105.888 -0.00111389H113.785L123.919 28.0055H116.698L115.02 23.0581H115.027ZM113.269 17.7909L109.796 7.53998L106.367 17.7909H113.269Z" fill="#038A71"/>
    <path d="M145.228 1.75702C147.436 2.92669 149.144 4.56858 150.357 6.68271C151.57 8.79683 152.173 11.2379 152.173 14.0058C152.173 16.7738 151.57 19.1785 150.357 21.3072C149.144 23.4358 147.429 25.085 145.213 26.2547C142.99 27.4243 140.418 28.0128 137.49 28.0128H127V-0.00111389H137.49C140.44 -0.00111389 143.019 0.587353 145.228 1.75702ZM143.077 19.985C144.516 18.5755 145.235 16.5777 145.235 13.9986C145.235 11.4195 144.516 9.40709 143.077 7.97588C141.639 6.53741 139.634 5.81817 137.055 5.81817H133.822V22.0991H137.055C139.634 22.0991 141.646 21.3944 143.077 19.985Z" fill="#038A71"/>
    <path d="M152.573 27.4186C152.194 27.0281 152 26.5519 152 25.9805C152 25.4091 152.194 24.9424 152.573 24.5615C152.951 24.19 153.437 23.9996 154.019 23.9996C154.602 23.9996 155.039 24.19 155.427 24.5615C155.806 24.9329 156 25.4091 156 25.9805C156 26.5519 155.806 27.0281 155.427 27.4186C155.049 27.8091 154.573 27.9996 154.019 27.9996C153.466 27.9996 152.961 27.8091 152.573 27.4186Z" fill="#DD77A9"/>
    <path d="M158.61 15.6114C159.271 14.3546 160.186 13.3883 161.363 12.7127C162.54 12.0298 163.862 11.6883 165.344 11.6883C166.827 11.6883 168.214 12.0443 169.326 12.7563C170.437 13.4682 171.244 14.3764 171.738 15.4806V11.9281H173.808V28.0927H171.738V24.5111C171.222 25.6154 170.408 26.5307 169.297 27.25C168.185 27.9692 166.856 28.3325 165.315 28.3325C163.855 28.3325 162.54 27.991 161.363 27.2936C160.186 26.6034 159.271 25.6226 158.61 24.3658C157.949 23.1017 157.615 21.6414 157.615 19.985C157.615 18.3285 157.941 16.8683 158.61 15.6187V15.6114ZM170.939 16.5704C170.408 15.5824 169.682 14.8268 168.759 14.2892C167.844 13.7588 166.827 13.49 165.722 13.49C164.618 13.49 163.55 13.7443 162.642 14.2601C161.734 14.7759 161.015 15.517 160.491 16.4978C159.968 17.4785 159.707 18.6337 159.707 19.9777C159.707 21.3217 159.968 22.4623 160.491 23.4576C161.015 24.453 161.734 25.2158 162.642 25.7389C163.55 26.2619 164.574 26.5235 165.722 26.5235C166.87 26.5235 167.836 26.2547 168.759 25.7243C169.674 25.194 170.401 24.4312 170.939 23.4431C171.469 22.4551 171.738 21.3145 171.738 20.0068C171.738 18.6991 171.469 17.5584 170.939 16.5704Z" fill="#A0A2A8"/>
    <path d="M180.623 11.9208V28.0855H178.552V11.9208H180.623Z" fill="#A0A2A8"/>
    <path d="M177.6 7.97979C177.6 8.55121 177.792 9.0274 178.187 9.41788C178.581 9.80836 179.052 9.99883 179.6 9.99883C180.148 9.99883 180.619 9.80836 181.014 9.41788C181.408 9.0274 181.6 8.55121 181.6 7.97979C181.6 7.40836 181.408 6.93217 181.014 6.56074C180.619 6.18931 180.148 5.99883 179.6 5.99883C179.052 5.99883 178.581 6.18931 178.187 6.56074C177.792 6.94169 177.6 7.40836 177.6 7.97979Z" fill="#DD77A9"/>
  </g>
  <defs>
    <clipPath id="clip0_10216_165">
      <rect fill="white" height="48.0007" transform="translate(0 -0.00111389)" width="182"/>
    </clipPath>
  </defs>
</svg>